<svg xmlns="http://www.w3.org/2000/svg" viewBox="0 0 800 500" width="800" height="500" font-family="Tahoma,Arial,Helvetica,sans-serif" font-size="11"><rect x="0" y="0" width="800" height="500" fill="#3A6EA5" rx="0"/><rect x="0" y="0" width="800" height="500" fill="#D4D0C8" rx="0"/><path d="M0 500V0H800" stroke="#fff" fill="none"/><path d="M0 500H800V0" stroke="#808080" fill="none"/><defs><linearGradient id="tb33" x1="0" x2="1"><stop offset="0" stop-color="#0A246A"/><stop offset="1" stop-color="#A6CAF0"/></linearGradient></defs><rect x="3" y="3" width="794" height="20" fill="url(#tb33)"/><text x="11" y="17" fill="#FFFFFF" font-weight="bold">Oracle Forms Runtime - [Fabric Issuance]</text><rect x="743" y="6" width="15" height="14" fill="#D4D0C8" rx="0"/><path d="M743 20V6H758" stroke="#fff" fill="none"/><path d="M743 20H758V6" stroke="#808080" fill="none"/><text x="750.5" y="17.0" font-size="10" text-anchor="middle">_</text><rect x="760" y="6" width="15" height="14" fill="#D4D0C8" rx="0"/><path d="M760 20V6H775" stroke="#fff" fill="none"/><path d="M760 20H775V6" stroke="#808080" fill="none"/><text x="767.5" y="17.0" font-size="10" text-anchor="middle">□</text><rect x="777" y="6" width="15" height="14" fill="#D4D0C8" rx="0"/><path d="M777 20V6H792" stroke="#fff" fill="none"/><path d="M777 20H792V6" stroke="#808080" fill="none"/><text x="784.5" y="17.0" font-size="10" text-anchor="middle">×</text><rect x="3" y="23" width="794" height="20" fill="#D4D0C8" rx="0"/><text x="11" y="37">Action</text><text x="67" y="37">Edit</text><text x="109" y="37">Query</text><text x="158" y="37">Block</text><text x="207" y="37">Record</text><text x="263" y="37">Field</text><text x="312" y="37">Help</text><rect x="3" y="43" width="794" height="28" fill="#D4D0C8" rx="0"/><line x1="3" y1="71" x2="797" y2="71" stroke="#808080"/><rect x="9" y="46" width="22" height="22" fill="#D4D0C8" rx="0"/><path d="M9 68V46H31" stroke="#fff" fill="none"/><path d="M9 68H31V46" stroke="#808080" fill="none"/><rect x="15" y="51" width="10" height="12" fill="#2E7D32" rx="0"/><rect x="35" y="46" width="22" height="22" fill="#D4D0C8" rx="0"/><path d="M35 68V46H57" stroke="#fff" fill="none"/><path d="M35 68H57V46" stroke="#808080" fill="none"/><circle cx="46" cy="57" r="6" fill="#1565C0"/><rect x="61" y="46" width="22" height="22" fill="#D4D0C8" rx="0"/><path d="M61 68V46H83" stroke="#fff" fill="none"/><path d="M61 68H83V46" stroke="#808080" fill="none"/><path d="M66 62L72 51L78 62Z" fill="#C62828"/><rect x="87" y="46" width="22" height="22" fill="#D4D0C8" rx="0"/><path d="M87 68V46H109" stroke="#fff" fill="none"/><path d="M87 68H109V46" stroke="#808080" fill="none"/><path d="M93 52L103 57L93 62Z" fill="#6A1B9A"/><rect x="121" y="46" width="22" height="22" fill="#D4D0C8" rx="0"/><path d="M121 68V46H143" stroke="#fff" fill="none"/><path d="M121 68H143V46" stroke="#808080" fill="none"/><rect x="126" y="55" width="12" height="4" fill="#EF6C00" rx="0"/><rect x="147" y="46" width="22" height="22" fill="#D4D0C8" rx="0"/><path d="M147 68V46H169" stroke="#fff" fill="none"/><path d="M147 68H169V46" stroke="#808080" fill="none"/><rect x="153" y="51" width="10" height="12" fill="#00838F" rx="0"/><rect x="173" y="46" width="22" height="22" fill="#D4D0C8" rx="0"/><path d="M173 68V46H195" stroke="#fff" fill="none"/><path d="M173 68H195V46" stroke="#808080" fill="none"/><circle cx="184" cy="57" r="6" fill="#5D4037"/><rect x="199" y="46" width="22" height="22" fill="#D4D0C8" rx="0"/><path d="M199 68V46H221" stroke="#fff" fill="none"/><path d="M199 68H221V46" stroke="#808080" fill="none"/><path d="M204 62L210 51L216 62Z" fill="#1565C0"/><rect x="233" y="46" width="22" height="22" fill="#D4D0C8" rx="0"/><path d="M233 68V46H255" stroke="#fff" fill="none"/><path d="M233 68H255V46" stroke="#808080" fill="none"/><path d="M239 52L249 57L239 62Z" fill="#2E7D32"/><rect x="259" y="46" width="22" height="22" fill="#D4D0C8" rx="0"/><path d="M259 68V46H281" stroke="#fff" fill="none"/><path d="M259 68H281V46" stroke="#808080" fill="none"/><rect x="264" y="55" width="12" height="4" fill="#1565C0" rx="0"/><rect x="285" y="46" width="22" height="22" fill="#D4D0C8" rx="0"/><path d="M285 68V46H307" stroke="#fff" fill="none"/><path d="M285 68H307V46" stroke="#808080" fill="none"/><rect x="291" y="51" width="10" height="12" fill="#C62828" rx="0"/><rect x="311" y="46" width="22" height="22" fill="#D4D0C8" rx="0"/><path d="M311 68V46H333" stroke="#fff" fill="none"/><path d="M311 68H333V46" stroke="#808080" fill="none"/><circle cx="322" cy="57" r="6" fill="#6A1B9A"/><rect x="345" y="46" width="22" height="22" fill="#D4D0C8" rx="0"/><path d="M345 68V46H367" stroke="#fff" fill="none"/><path d="M345 68H367V46" stroke="#808080" fill="none"/><path d="M350 62L356 51L362 62Z" fill="#EF6C00"/><rect x="371" y="46" width="22" height="22" fill="#D4D0C8" rx="0"/><path d="M371 68V46H393" stroke="#fff" fill="none"/><path d="M371 68H393V46" stroke="#808080" fill="none"/><path d="M377 52L387 57L377 62Z" fill="#00838F"/><rect x="397" y="46" width="22" height="22" fill="#D4D0C8" rx="0"/><path d="M397 68V46H419" stroke="#fff" fill="none"/><path d="M397 68H419V46" stroke="#808080" fill="none"/><rect x="402" y="55" width="12" height="4" fill="#5D4037" rx="0"/><rect x="423" y="46" width="22" height="22" fill="#D4D0C8" rx="0"/><path d="M423 68V46H445" stroke="#fff" fill="none"/><path d="M423 68H445V46" stroke="#808080" fill="none"/><rect x="429" y="51" width="10" height="12" fill="#1565C0" rx="0"/><rect x="3" y="477" width="794" height="20" fill="#D4D0C8" rx="0"/><rect x="5" y="479" width="624" height="16" fill="#D4D0C8" rx="0"/><path d="M5 495V479H629" stroke="#808080" fill="none"/><path d="M5 495H629V479" stroke="#FFFFFF" fill="none"/><text x="11" y="491" font-size="10">Record: 1/1</text><rect x="633" y="479" width="80" height="16" fill="#D4D0C8" rx="0"/><path d="M633 495V479H713" stroke="#808080" fill="none"/><path d="M633 495H713V479" stroke="#FFFFFF" fill="none"/><text x="639" y="491" font-size="10">List of Val.</text><rect x="717" y="479" width="78" height="16" fill="#D4D0C8" rx="0"/><path d="M717 495V479H795" stroke="#808080" fill="none"/><path d="M717 495H795V479" stroke="#FFFFFF" fill="none"/><text x="723" y="491" font-size="10">&lt;OSC&gt;</text><rect x="10" y="76" width="780" height="396" fill="#D4D0C8" rx="0"/><rect x="20" y="92" width="760" height="150" fill="none" stroke="#808080"/><rect x="21" y="93" width="760" height="150" fill="none" stroke="#FFFFFF"/><rect x="30" y="85" width="74.0" height="14" fill="#D4D0C8" rx="0"/><text x="34" y="96" font-weight="bold">Issue Note</text><text x="134" y="121" text-anchor="end">Issue No</text><rect x="140" y="108" width="110" height="18" fill="#FFFFFF" rx="0"/><path d="M140 126V108H250" stroke="#808080" fill="none"/><path d="M140 126H250V108" stroke="#FFFFFF" fill="none"/><text x="144" y="121">ISN-004512</text><text x="134" y="147" text-anchor="end">Issue Date</text><rect x="140" y="134" width="100" height="18" fill="#FFFFFF" rx="0"/><path d="M140 152V134H240" stroke="#808080" fill="none"/><path d="M140 152H240V134" stroke="#FFFFFF" fill="none"/><text x="144" y="147">27-SEP-2025</text><text x="134" y="173" text-anchor="end">Fabric Code</text><rect x="140" y="160" width="60" height="18" fill="#FFFFFF" rx="0"/><path d="M140 178V160H200" stroke="#808080" fill="none"/><path d="M140 178H200V160" stroke="#FFFFFF" fill="none"/><rect x="203" y="160" width="18" height="18" fill="#D4D0C8" rx="0"/><path d="M203 178V160H221" stroke="#fff" fill="none"/><path d="M203 178H221V160" stroke="#808080" fill="none"/><text x="212.0" y="173.0" font-size="10" text-anchor="middle">...</text><rect x="226" y="160" width="240" height="18" fill="#FFFFFF" rx="0"/><path d="M226 178V160H466" stroke="#808080" fill="none"/><path d="M226 178H466V160" stroke="#FFFFFF" fill="none"/><text x="134" y="199" text-anchor="end">Quantity (m)</text><rect x="140" y="186" width="90" height="18" fill="#FFFFFF" rx="0"/><path d="M140 204V186H230" stroke="#808080" fill="none"/><path d="M140 204H230V186" stroke="#FFFFFF" fill="none"/><text x="554" y="121" text-anchor="end">Issue To</text><rect x="560" y="108" width="150" height="18" fill="#FFFFFF" rx="0"/><path d="M560 126V108H710" stroke="#808080" fill="none"/><path d="M560 126H710V108" stroke="#FFFFFF" fill="none"/><text x="564" y="121">Cutting Section</text><rect x="186" y="178" width="440" height="286" fill="#000" opacity=".25"/><rect x="180" y="172" width="440" height="286" fill="#D4D0C8" rx="0"/><path d="M180 458V172H620" stroke="#fff" fill="none"/><path d="M180 458H620V172" stroke="#808080" fill="none"/><defs><linearGradient id="tb183175" x1="0" x2="1"><stop offset="0" stop-color="#0A246A"/><stop offset="1" stop-color="#A6CAF0"/></linearGradient></defs><rect x="183" y="175" width="434" height="20" fill="url(#tb183175)"/><text x="191" y="189" fill="#FFFFFF" font-weight="bold">Fabrics</text><rect x="563" y="178" width="15" height="14" fill="#D4D0C8" rx="0"/><path d="M563 192V178H578" stroke="#fff" fill="none"/><path d="M563 192H578V178" stroke="#808080" fill="none"/><text x="570.5" y="189.0" font-size="10" text-anchor="middle">_</text><rect x="580" y="178" width="15" height="14" fill="#D4D0C8" rx="0"/><path d="M580 192V178H595" stroke="#fff" fill="none"/><path d="M580 192H595V178" stroke="#808080" fill="none"/><text x="587.5" y="189.0" font-size="10" text-anchor="middle">□</text><rect x="597" y="178" width="15" height="14" fill="#D4D0C8" rx="0"/><path d="M597 192V178H612" stroke="#fff" fill="none"/><path d="M597 192H612V178" stroke="#808080" fill="none"/><text x="604.5" y="189.0" font-size="10" text-anchor="middle">×</text><text x="196" y="212">Find</text><rect x="230" y="200" width="250" height="18" fill="#FFFFFF" rx="0"/><path d="M230 218V200H480" stroke="#808080" fill="none"/><path d="M230 218H480V200" stroke="#FFFFFF" fill="none"/><text x="234" y="213" font-family="Consolas,monospace">%DENIM%</text><rect x="196" y="226" width="90" height="20" fill="#D4D0C8" rx="0"/><path d="M196 246V226H286" stroke="#fff" fill="none"/><path d="M196 246H286V226" stroke="#808080" fill="none"/><text x="202" y="240" font-size="10" font-weight="bold">Code</text><rect x="286" y="226" width="230" height="20" fill="#D4D0C8" rx="0"/><path d="M286 246V226H516" stroke="#fff" fill="none"/><path d="M286 246H516V226" stroke="#808080" fill="none"/><text x="292" y="240" font-size="10" font-weight="bold">Description</text><rect x="516" y="226" width="80" height="20" fill="#D4D0C8" rx="0"/><path d="M516 246V226H596" stroke="#fff" fill="none"/><path d="M516 246H596V226" stroke="#808080" fill="none"/><text x="522" y="240" font-size="10" font-weight="bold">Stock (m)</text><rect x="196" y="246" width="416" height="150" fill="#FFFFFF" rx="0"/><path d="M196 396V246H612" stroke="#808080" fill="none"/><path d="M196 396H612V246" stroke="#FFFFFF" fill="none"/><text x="202" y="262" font-family="Consolas,monospace">FB-DN-101</text><text x="292" y="262">Denim 10oz Indigo Rigid</text><text x="590" y="262" text-anchor="end">12,450</text><rect x="198" y="268" width="396" height="20" fill="#0A246A" rx="0"/><text x="202" y="282" font-family="Consolas,monospace" fill="#FFFFFF">FB-DN-104</text><text x="292" y="282" fill="#FFFFFF">Denim 12oz Stretch Black</text><text x="590" y="282" fill="#FFFFFF" text-anchor="end">8,320</text><text x="202" y="302" font-family="Consolas,monospace">FB-DN-110</text><text x="292" y="302">Denim 9oz Light Wash</text><text x="590" y="302" text-anchor="end">5,600</text><text x="202" y="322" font-family="Consolas,monospace">FB-DN-115</text><text x="292" y="322">Denim 14oz Raw Selvedge</text><text x="590" y="322" text-anchor="end">2,180</text><text x="202" y="342" font-family="Consolas,monospace">FB-DN-120</text><text x="292" y="342">Denim 11oz Mid Blue Stretch</text><text x="590" y="342" text-anchor="end">9,975</text><text x="202" y="362" font-family="Consolas,monospace">FB-DN-126</text><text x="292" y="362">Denim 8oz Chambray</text><text x="590" y="362" text-anchor="end">4,410</text><text x="202" y="382" font-family="Consolas,monospace">FB-DN-131</text><text x="292" y="382">Denim 13oz Grey Cast</text><text x="590" y="382" text-anchor="end">3,060</text><rect x="596" y="247" width="16" height="148" fill="#E8E6E0" rx="0"/><rect x="596" y="247" width="16" height="16" fill="#D4D0C8" rx="0"/><path d="M596 263V247H612" stroke="#fff" fill="none"/><path d="M596 263H612V247" stroke="#808080" fill="none"/><text x="604.0" y="259.0" font-size="8" text-anchor="middle">▲</text><rect x="596" y="379" width="16" height="16" fill="#D4D0C8" rx="0"/><path d="M596 395V379H612" stroke="#fff" fill="none"/><path d="M596 395H612V379" stroke="#808080" fill="none"/><text x="604.0" y="391.0" font-size="8" text-anchor="middle">▼</text><rect x="596" y="286.2" width="16" height="58.0" fill="#D4D0C8" rx="0"/><path d="M596 344.2V286.2H612" stroke="#fff" fill="none"/><path d="M596 344.2H612V286.2" stroke="#808080" fill="none"/><rect x="270" y="410" width="80" height="24" fill="#D4D0C8" rx="0"/><path d="M270 434V410H350" stroke="#fff" fill="none"/><path d="M270 434H350V410" stroke="#808080" fill="none"/><text x="310.0" y="426.0" text-anchor="middle">Find</text><rect x="360" y="410" width="80" height="24" fill="#D4D0C8" rx="0"/><path d="M360 434V410H440" stroke="#fff" fill="none"/><path d="M360 434H440V410" stroke="#808080" fill="none"/><text x="400.0" y="426.0" text-anchor="middle">OK</text><rect x="450" y="410" width="80" height="24" fill="#D4D0C8" rx="0"/><path d="M450 434V410H530" stroke="#fff" fill="none"/><path d="M450 434H530V410" stroke="#808080" fill="none"/><text x="490.0" y="426.0" text-anchor="middle">Cancel</text></svg>