<svg xmlns="http://www.w3.org/2000/svg" viewBox="0 0 800 500" width="800" height="500"><rect x="0" y="0" width="800" height="500" rx="0" fill="#fff" stroke="none" stroke-width="1"/><rect x="0" y="0" width="800" height="28" rx="0" fill="#E8EAED" stroke="none" stroke-width="1"/><circle cx="14" cy="14" r="5" fill="#FF5F57"/><circle cx="30" cy="14" r="5" fill="#FEBC2E"/><circle cx="46" cy="14" r="5" fill="#28C840"/><rect x="70" y="6" width="520" height="16" rx="8" fill="#fff" stroke="none" stroke-width="1"/><text x="82" y="18" font-family="Arial,Helvetica,sans-serif" font-size="9.5" fill="#5F6368" font-weight="normal" text-anchor="start">apex.bzsoftech.com/ords/r/erp/inventory/items</text><rect x="0" y="28" width="800" height="40" rx="0" fill="#2A3A4D" stroke="none" stroke-width="1"/><rect x="12" y="38" width="20" height="20" rx="4" fill="#0572CE" stroke="none" stroke-width="1"/><text x="22" y="52" font-family="Arial,Helvetica,sans-serif" font-size="11" fill="#fff" font-weight="bold" text-anchor="middle">I</text><text x="42" y="53" font-family="Arial,Helvetica,sans-serif" font-size="13" fill="#fff" font-weight="bold" text-anchor="start">Inventory System</text><circle cx="700" cy="48" r="11" fill="#4B6078"/><text x="700" y="52" font-family="Arial,Helvetica,sans-serif" font-size="9" fill="#fff" font-weight="bold" text-anchor="middle">YK</text><text x="718" y="52" font-family="Arial,Helvetica,sans-serif" font-size="11" fill="#DCE3EA" font-weight="normal" text-anchor="start">Yaseen Khan</text><path d="M670 43 l6 0 M670 48 l6 0 M670 53 l6 0" stroke="#DCE3EA" stroke-width="1.5"/><rect x="0" y="68" width="160" height="432" rx="0" fill="#F4F5F7" stroke="none" stroke-width="1"/><line x1="160" y1="68" x2="160" y2="500" stroke="#DADDE2" stroke-width="1"/><text x="34" y="93" font-family="Arial,Helvetica,sans-serif" font-size="11.5" fill="#3B4452" font-weight="normal" text-anchor="start">Home</text><rect x="14" y="85" width="11" height="11" rx="2" fill="none" stroke="#8A93A0" stroke-width="1.2"/><text x="34" y="123" font-family="Arial,Helvetica,sans-serif" font-size="11.5" fill="#3B4452" font-weight="normal" text-anchor="start">Sales</text><rect x="14" y="115" width="11" height="11" rx="2" fill="none" stroke="#8A93A0" stroke-width="1.2"/><text x="34" y="153" font-family="Arial,Helvetica,sans-serif" font-size="11.5" fill="#3B4452" font-weight="normal" text-anchor="start">Customers</text><rect x="14" y="145" width="11" height="11" rx="2" fill="none" stroke="#8A93A0" stroke-width="1.2"/><rect x="0" y="166" width="160" height="26" rx="0" fill="#E1ECF7" stroke="none" stroke-width="1"/><rect x="0" y="166" width="3" height="26" rx="0" fill="#0572CE" stroke="none" stroke-width="1"/><text x="34" y="183" font-family="Arial,Helvetica,sans-serif" font-size="11.5" fill="#0572CE" font-weight="bold" text-anchor="start">Inventory</text><rect x="14" y="175" width="11" height="11" rx="2" fill="none" stroke="#8A93A0" stroke-width="1.2"/><text x="34" y="213" font-family="Arial,Helvetica,sans-serif" font-size="11.5" fill="#3B4452" font-weight="normal" text-anchor="start">HR &amp; Payroll</text><rect x="14" y="205" width="11" height="11" rx="2" fill="none" stroke="#8A93A0" stroke-width="1.2"/><text x="34" y="243" font-family="Arial,Helvetica,sans-serif" font-size="11.5" fill="#3B4452" font-weight="normal" text-anchor="start">Accounts</text><rect x="14" y="235" width="11" height="11" rx="2" fill="none" stroke="#8A93A0" stroke-width="1.2"/><text x="34" y="273" font-family="Arial,Helvetica,sans-serif" font-size="11.5" fill="#3B4452" font-weight="normal" text-anchor="start">Reports</text><rect x="14" y="265" width="11" height="11" rx="2" fill="none" stroke="#8A93A0" stroke-width="1.2"/><text x="34" y="303" font-family="Arial,Helvetica,sans-serif" font-size="11.5" fill="#3B4452" font-weight="normal" text-anchor="start">Administration</text><rect x="14" y="295" width="11" height="11" rx="2" fill="none" stroke="#8A93A0" stroke-width="1.2"/><rect x="161" y="68" width="639" height="34" rx="0" fill="#fff" stroke="none" stroke-width="1"/><line x1="161" y1="102" x2="800" y2="102" stroke="#DADDE2" stroke-width="1"/><text x="176" y="90" font-family="Arial,Helvetica,sans-serif" font-size="11.5" fill="#0572CE" font-weight="normal" text-anchor="start">Home</text><text x="210.4" y="90" font-family="Arial,Helvetica,sans-serif" font-size="12" fill="#6B7280" font-weight="normal" text-anchor="start">›</text><text x="224.4" y="90" font-family="Arial,Helvetica,sans-serif" font-size="11.5" fill="#0572CE" font-weight="normal" text-anchor="start">Inventory</text><text x="291.8" y="90" font-family="Arial,Helvetica,sans-serif" font-size="12" fill="#6B7280" font-weight="normal" text-anchor="start">›</text><text x="305.8" y="90" font-family="Arial,Helvetica,sans-serif" font-size="13" fill="#262626" font-weight="bold" text-anchor="start">Items</text><rect x="176" y="112" width="610" height="34" rx="0" fill="#F7F8FA" stroke="#DADDE2" stroke-width="1"/><rect x="184" y="118" width="26" height="22" rx="3" fill="#fff" stroke="#C7CBD1" stroke-width="1"/><circle cx="195" cy="128" r="4.5" fill="none" stroke="#6B7280" stroke-width="1.4"/><rect x="210" y="118" width="160" height="22" rx="0" fill="#fff" stroke="#C7CBD1" stroke-width="1"/><text x="218" y="133" font-family="Arial,Helvetica,sans-serif" font-size="10.5" fill="#9AA1AB" font-weight="normal" text-anchor="start">Search</text><rect x="378" y="117" width="66" height="24" rx="3" fill="#fff" stroke="#C7CBD1" stroke-width="1"/><text x="411.0" y="133" font-family="Arial,Helvetica,sans-serif" font-size="11" fill="#262626" font-weight="normal" text-anchor="middle">Actions ▾</text><rect x="452" y="117" width="50" height="24" rx="3" fill="#fff" stroke="#C7CBD1" stroke-width="1"/><text x="477.0" y="133" font-family="Arial,Helvetica,sans-serif" font-size="11" fill="#262626" font-weight="normal" text-anchor="middle">Edit</text><rect x="640" y="117" width="70" height="24" rx="3" fill="#fff" stroke="#C7CBD1" stroke-width="1"/><text x="675.0" y="133" font-family="Arial,Helvetica,sans-serif" font-size="11" fill="#262626" font-weight="normal" text-anchor="middle">Add Row</text><rect x="716" y="117" width="62" height="24" rx="3" fill="#0572CE" stroke="none" stroke-width="1"/><text x="747.0" y="133" font-family="Arial,Helvetica,sans-serif" font-size="11" fill="#fff" font-weight="bold" text-anchor="middle">Save</text><rect x="176" y="150" width="610" height="24" rx="0" fill="#F2F3F5" stroke="#DADDE2" stroke-width="1"/><text x="190" y="166" font-family="Arial,Helvetica,sans-serif" font-size="10.5" fill="#3B4452" font-weight="bold" text-anchor="start"></text><line x1="206" y1="150" x2="206" y2="174" stroke="#DADDE2" stroke-width="1"/><text x="212" y="166" font-family="Arial,Helvetica,sans-serif" font-size="10.5" fill="#3B4452" font-weight="bold" text-anchor="start">Item Code</text><line x1="278" y1="150" x2="278" y2="174" stroke="#DADDE2" stroke-width="1"/><text x="284" y="166" font-family="Arial,Helvetica,sans-serif" font-size="10.5" fill="#3B4452" font-weight="bold" text-anchor="start">Description</text><line x1="430" y1="150" x2="430" y2="174" stroke="#DADDE2" stroke-width="1"/><text x="436" y="166" font-family="Arial,Helvetica,sans-serif" font-size="10.5" fill="#3B4452" font-weight="bold" text-anchor="start">Category</text><line x1="522" y1="150" x2="522" y2="174" stroke="#DADDE2" stroke-width="1"/><text x="528" y="166" font-family="Arial,Helvetica,sans-serif" font-size="10.5" fill="#3B4452" font-weight="bold" text-anchor="start">UOM</text><line x1="568" y1="150" x2="568" y2="174" stroke="#DADDE2" stroke-width="1"/><text x="574" y="166" font-family="Arial,Helvetica,sans-serif" font-size="10.5" fill="#3B4452" font-weight="bold" text-anchor="start">Qty</text><line x1="626" y1="150" x2="626" y2="174" stroke="#DADDE2" stroke-width="1"/><text x="632" y="166" font-family="Arial,Helvetica,sans-serif" font-size="10.5" fill="#3B4452" font-weight="bold" text-anchor="start">Rate (PKR)</text><line x1="704" y1="150" x2="704" y2="174" stroke="#DADDE2" stroke-width="1"/><text x="710" y="166" font-family="Arial,Helvetica,sans-serif" font-size="10.5" fill="#3B4452" font-weight="bold" text-anchor="start">Store</text><line x1="784" y1="150" x2="784" y2="174" stroke="#DADDE2" stroke-width="1"/><rect x="176" y="174" width="610" height="26" rx="0" fill="#fff" stroke="#DADDE2" stroke-width="1"/><rect x="190" y="182" width="10" height="10" rx="2" fill="#fff" stroke="#9AA1AB" stroke-width="1"/><text x="212" y="192" font-family="Arial,Helvetica,sans-serif" font-size="10.5" fill="#262626" font-weight="normal" text-anchor="start">IT-0101</text><text x="284" y="192" font-family="Arial,Helvetica,sans-serif" font-size="10.5" fill="#262626" font-weight="normal" text-anchor="start">Cotton Yarn 30/1</text><text x="436" y="192" font-family="Arial,Helvetica,sans-serif" font-size="10.5" fill="#262626" font-weight="normal" text-anchor="start">Yarn</text><text x="528" y="192" font-family="Arial,Helvetica,sans-serif" font-size="10.5" fill="#262626" font-weight="normal" text-anchor="start">KG</text><text x="618" y="192" font-family="Arial,Helvetica,sans-serif" font-size="10.5" fill="#262626" font-weight="normal" text-anchor="end">12,450</text><text x="696" y="192" font-family="Arial,Helvetica,sans-serif" font-size="10.5" fill="#262626" font-weight="normal" text-anchor="end">1,180</text><text x="710" y="192" font-family="Arial,Helvetica,sans-serif" font-size="10.5" fill="#262626" font-weight="normal" text-anchor="start">Main Store</text><line x1="206" y1="174" x2="206" y2="200" stroke="#E6E8EB" stroke-width="1"/><line x1="278" y1="174" x2="278" y2="200" stroke="#E6E8EB" stroke-width="1"/><line x1="430" y1="174" x2="430" y2="200" stroke="#E6E8EB" stroke-width="1"/><line x1="522" y1="174" x2="522" y2="200" stroke="#E6E8EB" stroke-width="1"/><line x1="568" y1="174" x2="568" y2="200" stroke="#E6E8EB" stroke-width="1"/><line x1="626" y1="174" x2="626" y2="200" stroke="#E6E8EB" stroke-width="1"/><line x1="704" y1="174" x2="704" y2="200" stroke="#E6E8EB" stroke-width="1"/><line x1="784" y1="174" x2="784" y2="200" stroke="#E6E8EB" stroke-width="1"/><rect x="176" y="200" width="610" height="26" rx="0" fill="#FAFBFC" stroke="#DADDE2" stroke-width="1"/><rect x="190" y="208" width="10" height="10" rx="2" fill="#fff" stroke="#9AA1AB" stroke-width="1"/><text x="212" y="218" font-family="Arial,Helvetica,sans-serif" font-size="10.5" fill="#262626" font-weight="normal" text-anchor="start">IT-0102</text><text x="284" y="218" font-family="Arial,Helvetica,sans-serif" font-size="10.5" fill="#262626" font-weight="normal" text-anchor="start">Polyester Yarn 150D</text><text x="436" y="218" font-family="Arial,Helvetica,sans-serif" font-size="10.5" fill="#262626" font-weight="normal" text-anchor="start">Yarn</text><text x="528" y="218" font-family="Arial,Helvetica,sans-serif" font-size="10.5" fill="#262626" font-weight="normal" text-anchor="start">KG</text><text x="618" y="218" font-family="Arial,Helvetica,sans-serif" font-size="10.5" fill="#262626" font-weight="normal" text-anchor="end">8,200</text><text x="696" y="218" font-family="Arial,Helvetica,sans-serif" font-size="10.5" fill="#262626" font-weight="normal" text-anchor="end">960</text><text x="710" y="218" font-family="Arial,Helvetica,sans-serif" font-size="10.5" fill="#262626" font-weight="normal" text-anchor="start">Main Store</text><line x1="206" y1="200" x2="206" y2="226" stroke="#E6E8EB" stroke-width="1"/><line x1="278" y1="200" x2="278" y2="226" stroke="#E6E8EB" stroke-width="1"/><line x1="430" y1="200" x2="430" y2="226" stroke="#E6E8EB" stroke-width="1"/><line x1="522" y1="200" x2="522" y2="226" stroke="#E6E8EB" stroke-width="1"/><line x1="568" y1="200" x2="568" y2="226" stroke="#E6E8EB" stroke-width="1"/><line x1="626" y1="200" x2="626" y2="226" stroke="#E6E8EB" stroke-width="1"/><line x1="704" y1="200" x2="704" y2="226" stroke="#E6E8EB" stroke-width="1"/><line x1="784" y1="200" x2="784" y2="226" stroke="#E6E8EB" stroke-width="1"/><rect x="176" y="226" width="610" height="26" rx="0" fill="#E8F1FB" stroke="#DADDE2" stroke-width="1"/><rect x="190" y="234" width="10" height="10" rx="2" fill="#0572CE" stroke="#0572CE" stroke-width="1"/><path d="M192 239 l2.5 2.5 l4 -5" stroke="#fff" stroke-width="1.5" fill="none"/><text x="212" y="244" font-family="Arial,Helvetica,sans-serif" font-size="10.5" fill="#262626" font-weight="normal" text-anchor="start">IT-0215</text><text x="284" y="244" font-family="Arial,Helvetica,sans-serif" font-size="10.5" fill="#262626" font-weight="normal" text-anchor="start">Reactive Dye Blue R</text><text x="436" y="244" font-family="Arial,Helvetica,sans-serif" font-size="10.5" fill="#262626" font-weight="normal" text-anchor="start">Chemicals</text><text x="528" y="244" font-family="Arial,Helvetica,sans-serif" font-size="10.5" fill="#262626" font-weight="normal" text-anchor="start">KG</text><rect x="571" y="228" width="54" height="22" rx="0" fill="#fff" stroke="#0572CE" stroke-width="2"/><text x="618" y="244" font-family="Arial,Helvetica,sans-serif" font-size="10.5" fill="#262626" font-weight="normal" text-anchor="end">640</text><text x="696" y="244" font-family="Arial,Helvetica,sans-serif" font-size="10.5" fill="#262626" font-weight="normal" text-anchor="end">3,450</text><text x="710" y="244" font-family="Arial,Helvetica,sans-serif" font-size="10.5" fill="#262626" font-weight="normal" text-anchor="start">Dye House</text><line x1="206" y1="226" x2="206" y2="252" stroke="#E6E8EB" stroke-width="1"/><line x1="278" y1="226" x2="278" y2="252" stroke="#E6E8EB" stroke-width="1"/><line x1="430" y1="226" x2="430" y2="252" stroke="#E6E8EB" stroke-width="1"/><line x1="522" y1="226" x2="522" y2="252" stroke="#E6E8EB" stroke-width="1"/><line x1="568" y1="226" x2="568" y2="252" stroke="#E6E8EB" stroke-width="1"/><line x1="626" y1="226" x2="626" y2="252" stroke="#E6E8EB" stroke-width="1"/><line x1="704" y1="226" x2="704" y2="252" stroke="#E6E8EB" stroke-width="1"/><line x1="784" y1="226" x2="784" y2="252" stroke="#E6E8EB" stroke-width="1"/><rect x="176" y="252" width="610" height="26" rx="0" fill="#FAFBFC" stroke="#DADDE2" stroke-width="1"/><rect x="190" y="260" width="10" height="10" rx="2" fill="#fff" stroke="#9AA1AB" stroke-width="1"/><text x="212" y="270" font-family="Arial,Helvetica,sans-serif" font-size="10.5" fill="#262626" font-weight="normal" text-anchor="start">IT-0216</text><text x="284" y="270" font-family="Arial,Helvetica,sans-serif" font-size="10.5" fill="#262626" font-weight="normal" text-anchor="start">Softener Silicone</text><text x="436" y="270" font-family="Arial,Helvetica,sans-serif" font-size="10.5" fill="#262626" font-weight="normal" text-anchor="start">Chemicals</text><text x="528" y="270" font-family="Arial,Helvetica,sans-serif" font-size="10.5" fill="#262626" font-weight="normal" text-anchor="start">LTR</text><text x="618" y="270" font-family="Arial,Helvetica,sans-serif" font-size="10.5" fill="#262626" font-weight="normal" text-anchor="end">1,120</text><text x="696" y="270" font-family="Arial,Helvetica,sans-serif" font-size="10.5" fill="#262626" font-weight="normal" text-anchor="end">780</text><text x="710" y="270" font-family="Arial,Helvetica,sans-serif" font-size="10.5" fill="#262626" font-weight="normal" text-anchor="start">Dye House</text><line x1="206" y1="252" x2="206" y2="278" stroke="#E6E8EB" stroke-width="1"/><line x1="278" y1="252" x2="278" y2="278" stroke="#E6E8EB" stroke-width="1"/><line x1="430" y1="252" x2="430" y2="278" stroke="#E6E8EB" stroke-width="1"/><line x1="522" y1="252" x2="522" y2="278" stroke="#E6E8EB" stroke-width="1"/><line x1="568" y1="252" x2="568" y2="278" stroke="#E6E8EB" stroke-width="1"/><line x1="626" y1="252" x2="626" y2="278" stroke="#E6E8EB" stroke-width="1"/><line x1="704" y1="252" x2="704" y2="278" stroke="#E6E8EB" stroke-width="1"/><line x1="784" y1="252" x2="784" y2="278" stroke="#E6E8EB" stroke-width="1"/><rect x="176" y="278" width="610" height="26" rx="0" fill="#fff" stroke="#DADDE2" stroke-width="1"/><rect x="190" y="286" width="10" height="10" rx="2" fill="#fff" stroke="#9AA1AB" stroke-width="1"/><text x="212" y="296" font-family="Arial,Helvetica,sans-serif" font-size="10.5" fill="#262626" font-weight="normal" text-anchor="start">IT-0330</text><text x="284" y="296" font-family="Arial,Helvetica,sans-serif" font-size="10.5" fill="#262626" font-weight="normal" text-anchor="start">Poly Bag 12x16</text><text x="436" y="296" font-family="Arial,Helvetica,sans-serif" font-size="10.5" fill="#262626" font-weight="normal" text-anchor="start">Packing</text><text x="528" y="296" font-family="Arial,Helvetica,sans-serif" font-size="10.5" fill="#262626" font-weight="normal" text-anchor="start">PCS</text><text x="618" y="296" font-family="Arial,Helvetica,sans-serif" font-size="10.5" fill="#262626" font-weight="normal" text-anchor="end">54,000</text><text x="696" y="296" font-family="Arial,Helvetica,sans-serif" font-size="10.5" fill="#262626" font-weight="normal" text-anchor="end">6</text><text x="710" y="296" font-family="Arial,Helvetica,sans-serif" font-size="10.5" fill="#262626" font-weight="normal" text-anchor="start">Packing</text><line x1="206" y1="278" x2="206" y2="304" stroke="#E6E8EB" stroke-width="1"/><line x1="278" y1="278" x2="278" y2="304" stroke="#E6E8EB" stroke-width="1"/><line x1="430" y1="278" x2="430" y2="304" stroke="#E6E8EB" stroke-width="1"/><line x1="522" y1="278" x2="522" y2="304" stroke="#E6E8EB" stroke-width="1"/><line x1="568" y1="278" x2="568" y2="304" stroke="#E6E8EB" stroke-width="1"/><line x1="626" y1="278" x2="626" y2="304" stroke="#E6E8EB" stroke-width="1"/><line x1="704" y1="278" x2="704" y2="304" stroke="#E6E8EB" stroke-width="1"/><line x1="784" y1="278" x2="784" y2="304" stroke="#E6E8EB" stroke-width="1"/><rect x="176" y="304" width="610" height="26" rx="0" fill="#FAFBFC" stroke="#DADDE2" stroke-width="1"/><rect x="190" y="312" width="10" height="10" rx="2" fill="#fff" stroke="#9AA1AB" stroke-width="1"/><text x="212" y="322" font-family="Arial,Helvetica,sans-serif" font-size="10.5" fill="#262626" font-weight="normal" text-anchor="start">IT-0331</text><text x="284" y="322" font-family="Arial,Helvetica,sans-serif" font-size="10.5" fill="#262626" font-weight="normal" text-anchor="start">Carton 5 Ply</text><text x="436" y="322" font-family="Arial,Helvetica,sans-serif" font-size="10.5" fill="#262626" font-weight="normal" text-anchor="start">Packing</text><text x="528" y="322" font-family="Arial,Helvetica,sans-serif" font-size="10.5" fill="#262626" font-weight="normal" text-anchor="start">PCS</text><text x="618" y="322" font-family="Arial,Helvetica,sans-serif" font-size="10.5" fill="#262626" font-weight="normal" text-anchor="end">3,800</text><text x="696" y="322" font-family="Arial,Helvetica,sans-serif" font-size="10.5" fill="#262626" font-weight="normal" text-anchor="end">145</text><text x="710" y="322" font-family="Arial,Helvetica,sans-serif" font-size="10.5" fill="#262626" font-weight="normal" text-anchor="start">Packing</text><line x1="206" y1="304" x2="206" y2="330" stroke="#E6E8EB" stroke-width="1"/><line x1="278" y1="304" x2="278" y2="330" stroke="#E6E8EB" stroke-width="1"/><line x1="430" y1="304" x2="430" y2="330" stroke="#E6E8EB" stroke-width="1"/><line x1="522" y1="304" x2="522" y2="330" stroke="#E6E8EB" stroke-width="1"/><line x1="568" y1="304" x2="568" y2="330" stroke="#E6E8EB" stroke-width="1"/><line x1="626" y1="304" x2="626" y2="330" stroke="#E6E8EB" stroke-width="1"/><line x1="704" y1="304" x2="704" y2="330" stroke="#E6E8EB" stroke-width="1"/><line x1="784" y1="304" x2="784" y2="330" stroke="#E6E8EB" stroke-width="1"/><rect x="176" y="330" width="610" height="26" rx="0" fill="#fff" stroke="#DADDE2" stroke-width="1"/><rect x="190" y="338" width="10" height="10" rx="2" fill="#fff" stroke="#9AA1AB" stroke-width="1"/><text x="212" y="348" font-family="Arial,Helvetica,sans-serif" font-size="10.5" fill="#262626" font-weight="normal" text-anchor="start">IT-0412</text><text x="284" y="348" font-family="Arial,Helvetica,sans-serif" font-size="10.5" fill="#262626" font-weight="normal" text-anchor="start">Sewing Thread 40/2</text><text x="436" y="348" font-family="Arial,Helvetica,sans-serif" font-size="10.5" fill="#262626" font-weight="normal" text-anchor="start">Accessories</text><text x="528" y="348" font-family="Arial,Helvetica,sans-serif" font-size="10.5" fill="#262626" font-weight="normal" text-anchor="start">CONE</text><text x="618" y="348" font-family="Arial,Helvetica,sans-serif" font-size="10.5" fill="#262626" font-weight="normal" text-anchor="end">2,960</text><text x="696" y="348" font-family="Arial,Helvetica,sans-serif" font-size="10.5" fill="#262626" font-weight="normal" text-anchor="end">210</text><text x="710" y="348" font-family="Arial,Helvetica,sans-serif" font-size="10.5" fill="#262626" font-weight="normal" text-anchor="start">Stitching</text><line x1="206" y1="330" x2="206" y2="356" stroke="#E6E8EB" stroke-width="1"/><line x1="278" y1="330" x2="278" y2="356" stroke="#E6E8EB" stroke-width="1"/><line x1="430" y1="330" x2="430" y2="356" stroke="#E6E8EB" stroke-width="1"/><line x1="522" y1="330" x2="522" y2="356" stroke="#E6E8EB" stroke-width="1"/><line x1="568" y1="330" x2="568" y2="356" stroke="#E6E8EB" stroke-width="1"/><line x1="626" y1="330" x2="626" y2="356" stroke="#E6E8EB" stroke-width="1"/><line x1="704" y1="330" x2="704" y2="356" stroke="#E6E8EB" stroke-width="1"/><line x1="784" y1="330" x2="784" y2="356" stroke="#E6E8EB" stroke-width="1"/><rect x="176" y="356" width="610" height="26" rx="0" fill="#FAFBFC" stroke="#DADDE2" stroke-width="1"/><rect x="190" y="364" width="10" height="10" rx="2" fill="#fff" stroke="#9AA1AB" stroke-width="1"/><text x="212" y="374" font-family="Arial,Helvetica,sans-serif" font-size="10.5" fill="#262626" font-weight="normal" text-anchor="start">IT-0413</text><text x="284" y="374" font-family="Arial,Helvetica,sans-serif" font-size="10.5" fill="#262626" font-weight="normal" text-anchor="start">Button 4-Hole 18L</text><text x="436" y="374" font-family="Arial,Helvetica,sans-serif" font-size="10.5" fill="#262626" font-weight="normal" text-anchor="start">Accessories</text><text x="528" y="374" font-family="Arial,Helvetica,sans-serif" font-size="10.5" fill="#262626" font-weight="normal" text-anchor="start">GROSS</text><text x="618" y="374" font-family="Arial,Helvetica,sans-serif" font-size="10.5" fill="#262626" font-weight="normal" text-anchor="end">740</text><text x="696" y="374" font-family="Arial,Helvetica,sans-serif" font-size="10.5" fill="#262626" font-weight="normal" text-anchor="end">320</text><text x="710" y="374" font-family="Arial,Helvetica,sans-serif" font-size="10.5" fill="#262626" font-weight="normal" text-anchor="start">Stitching</text><line x1="206" y1="356" x2="206" y2="382" stroke="#E6E8EB" stroke-width="1"/><line x1="278" y1="356" x2="278" y2="382" stroke="#E6E8EB" stroke-width="1"/><line x1="430" y1="356" x2="430" y2="382" stroke="#E6E8EB" stroke-width="1"/><line x1="522" y1="356" x2="522" y2="382" stroke="#E6E8EB" stroke-width="1"/><line x1="568" y1="356" x2="568" y2="382" stroke="#E6E8EB" stroke-width="1"/><line x1="626" y1="356" x2="626" y2="382" stroke="#E6E8EB" stroke-width="1"/><line x1="704" y1="356" x2="704" y2="382" stroke="#E6E8EB" stroke-width="1"/><line x1="784" y1="356" x2="784" y2="382" stroke="#E6E8EB" stroke-width="1"/><rect x="176" y="382" width="610" height="26" rx="0" fill="#fff" stroke="#DADDE2" stroke-width="1"/><rect x="190" y="390" width="10" height="10" rx="2" fill="#fff" stroke="#9AA1AB" stroke-width="1"/><text x="212" y="400" font-family="Arial,Helvetica,sans-serif" font-size="10.5" fill="#262626" font-weight="normal" text-anchor="start">IT-0520</text><text x="284" y="400" font-family="Arial,Helvetica,sans-serif" font-size="10.5" fill="#262626" font-weight="normal" text-anchor="start">Needle DBx1 #14</text><text x="436" y="400" font-family="Arial,Helvetica,sans-serif" font-size="10.5" fill="#262626" font-weight="normal" text-anchor="start">Spares</text><text x="528" y="400" font-family="Arial,Helvetica,sans-serif" font-size="10.5" fill="#262626" font-weight="normal" text-anchor="start">PKT</text><text x="618" y="400" font-family="Arial,Helvetica,sans-serif" font-size="10.5" fill="#262626" font-weight="normal" text-anchor="end">410</text><text x="696" y="400" font-family="Arial,Helvetica,sans-serif" font-size="10.5" fill="#262626" font-weight="normal" text-anchor="end">450</text><text x="710" y="400" font-family="Arial,Helvetica,sans-serif" font-size="10.5" fill="#262626" font-weight="normal" text-anchor="start">Maintenance</text><line x1="206" y1="382" x2="206" y2="408" stroke="#E6E8EB" stroke-width="1"/><line x1="278" y1="382" x2="278" y2="408" stroke="#E6E8EB" stroke-width="1"/><line x1="430" y1="382" x2="430" y2="408" stroke="#E6E8EB" stroke-width="1"/><line x1="522" y1="382" x2="522" y2="408" stroke="#E6E8EB" stroke-width="1"/><line x1="568" y1="382" x2="568" y2="408" stroke="#E6E8EB" stroke-width="1"/><line x1="626" y1="382" x2="626" y2="408" stroke="#E6E8EB" stroke-width="1"/><line x1="704" y1="382" x2="704" y2="408" stroke="#E6E8EB" stroke-width="1"/><line x1="784" y1="382" x2="784" y2="408" stroke="#E6E8EB" stroke-width="1"/><rect x="176" y="408" width="610" height="26" rx="0" fill="#FAFBFC" stroke="#DADDE2" stroke-width="1"/><rect x="190" y="416" width="10" height="10" rx="2" fill="#fff" stroke="#9AA1AB" stroke-width="1"/><text x="212" y="426" font-family="Arial,Helvetica,sans-serif" font-size="10.5" fill="#262626" font-weight="normal" text-anchor="start">IT-0521</text><text x="284" y="426" font-family="Arial,Helvetica,sans-serif" font-size="10.5" fill="#262626" font-weight="normal" text-anchor="start">Machine Oil</text><text x="436" y="426" font-family="Arial,Helvetica,sans-serif" font-size="10.5" fill="#262626" font-weight="normal" text-anchor="start">Spares</text><text x="528" y="426" font-family="Arial,Helvetica,sans-serif" font-size="10.5" fill="#262626" font-weight="normal" text-anchor="start">LTR</text><text x="618" y="426" font-family="Arial,Helvetica,sans-serif" font-size="10.5" fill="#262626" font-weight="normal" text-anchor="end">95</text><text x="696" y="426" font-family="Arial,Helvetica,sans-serif" font-size="10.5" fill="#262626" font-weight="normal" text-anchor="end">690</text><text x="710" y="426" font-family="Arial,Helvetica,sans-serif" font-size="10.5" fill="#262626" font-weight="normal" text-anchor="start">Maintenance</text><line x1="206" y1="408" x2="206" y2="434" stroke="#E6E8EB" stroke-width="1"/><line x1="278" y1="408" x2="278" y2="434" stroke="#E6E8EB" stroke-width="1"/><line x1="430" y1="408" x2="430" y2="434" stroke="#E6E8EB" stroke-width="1"/><line x1="522" y1="408" x2="522" y2="434" stroke="#E6E8EB" stroke-width="1"/><line x1="568" y1="408" x2="568" y2="434" stroke="#E6E8EB" stroke-width="1"/><line x1="626" y1="408" x2="626" y2="434" stroke="#E6E8EB" stroke-width="1"/><line x1="704" y1="408" x2="704" y2="434" stroke="#E6E8EB" stroke-width="1"/><line x1="784" y1="408" x2="784" y2="434" stroke="#E6E8EB" stroke-width="1"/><text x="186" y="470" font-family="Arial,Helvetica,sans-serif" font-size="10.5" fill="#6B7280" font-weight="normal" text-anchor="start">1 row selected · 1 changed</text><text x="786" y="470" font-family="Arial,Helvetica,sans-serif" font-size="10.5" fill="#6B7280" font-weight="normal" text-anchor="end">Total 238 rows</text></svg>