<svg xmlns="http://www.w3.org/2000/svg" viewBox="0 0 800 500" width="800" height="500"><rect x="0" y="0" width="800" height="500" rx="0" fill="#fff" stroke="none" stroke-width="1"/><rect x="0" y="0" width="800" height="28" rx="0" fill="#E8EAED" stroke="none" stroke-width="1"/><circle cx="14" cy="14" r="5" fill="#FF5F57"/><circle cx="30" cy="14" r="5" fill="#FEBC2E"/><circle cx="46" cy="14" r="5" fill="#28C840"/><rect x="70" y="6" width="520" height="16" rx="8" fill="#fff" stroke="none" stroke-width="1"/><text x="82" y="18" font-family="Arial,Helvetica,sans-serif" font-size="9.5" fill="#5F6368" font-weight="normal" text-anchor="start">apex.bzsoftech.com/ords/r/erp/sales/dashboard</text><rect x="0" y="28" width="800" height="40" rx="0" fill="#2A3A4D" stroke="none" stroke-width="1"/><rect x="12" y="38" width="20" height="20" rx="4" fill="#0572CE" stroke="none" stroke-width="1"/><text x="22" y="52" font-family="Arial,Helvetica,sans-serif" font-size="11" fill="#fff" font-weight="bold" text-anchor="middle">S</text><text x="42" y="53" font-family="Arial,Helvetica,sans-serif" font-size="13" fill="#fff" font-weight="bold" text-anchor="start">Sales ERP</text><circle cx="700" cy="48" r="11" fill="#4B6078"/><text x="700" y="52" font-family="Arial,Helvetica,sans-serif" font-size="9" fill="#fff" font-weight="bold" text-anchor="middle">YK</text><text x="718" y="52" font-family="Arial,Helvetica,sans-serif" font-size="11" fill="#DCE3EA" font-weight="normal" text-anchor="start">Yaseen Khan</text><path d="M670 43 l6 0 M670 48 l6 0 M670 53 l6 0" stroke="#DCE3EA" stroke-width="1.5"/><rect x="0" y="68" width="160" height="432" rx="0" fill="#F4F5F7" stroke="none" stroke-width="1"/><line x1="160" y1="68" x2="160" y2="500" stroke="#DADDE2" stroke-width="1"/><rect x="0" y="76" width="160" height="26" rx="0" fill="#E1ECF7" stroke="none" stroke-width="1"/><rect x="0" y="76" width="3" height="26" rx="0" fill="#0572CE" stroke="none" stroke-width="1"/><text x="34" y="93" font-family="Arial,Helvetica,sans-serif" font-size="11.5" fill="#0572CE" font-weight="bold" text-anchor="start">Home</text><rect x="14" y="85" width="11" height="11" rx="2" fill="none" stroke="#8A93A0" stroke-width="1.2"/><text x="34" y="123" font-family="Arial,Helvetica,sans-serif" font-size="11.5" fill="#3B4452" font-weight="normal" text-anchor="start">Sales</text><rect x="14" y="115" width="11" height="11" rx="2" fill="none" stroke="#8A93A0" stroke-width="1.2"/><text x="34" y="153" font-family="Arial,Helvetica,sans-serif" font-size="11.5" fill="#3B4452" font-weight="normal" text-anchor="start">Customers</text><rect x="14" y="145" width="11" height="11" rx="2" fill="none" stroke="#8A93A0" stroke-width="1.2"/><text x="34" y="183" font-family="Arial,Helvetica,sans-serif" font-size="11.5" fill="#3B4452" font-weight="normal" text-anchor="start">Inventory</text><rect x="14" y="175" width="11" height="11" rx="2" fill="none" stroke="#8A93A0" stroke-width="1.2"/><text x="34" y="213" font-family="Arial,Helvetica,sans-serif" font-size="11.5" fill="#3B4452" font-weight="normal" text-anchor="start">HR &amp; Payroll</text><rect x="14" y="205" width="11" height="11" rx="2" fill="none" stroke="#8A93A0" stroke-width="1.2"/><text x="34" y="243" font-family="Arial,Helvetica,sans-serif" font-size="11.5" fill="#3B4452" font-weight="normal" text-anchor="start">Accounts</text><rect x="14" y="235" width="11" height="11" rx="2" fill="none" stroke="#8A93A0" stroke-width="1.2"/><text x="34" y="273" font-family="Arial,Helvetica,sans-serif" font-size="11.5" fill="#3B4452" font-weight="normal" text-anchor="start">Reports</text><rect x="14" y="265" width="11" height="11" rx="2" fill="none" stroke="#8A93A0" stroke-width="1.2"/><text x="34" y="303" font-family="Arial,Helvetica,sans-serif" font-size="11.5" fill="#3B4452" font-weight="normal" text-anchor="start">Administration</text><rect x="14" y="295" width="11" height="11" rx="2" fill="none" stroke="#8A93A0" stroke-width="1.2"/><rect x="161" y="68" width="639" height="34" rx="0" fill="#fff" stroke="none" stroke-width="1"/><line x1="161" y1="102" x2="800" y2="102" stroke="#DADDE2" stroke-width="1"/><text x="176" y="90" font-family="Arial,Helvetica,sans-serif" font-size="11.5" fill="#0572CE" font-weight="normal" text-anchor="start">Home</text><text x="210.4" y="90" font-family="Arial,Helvetica,sans-serif" font-size="12" fill="#6B7280" font-weight="normal" text-anchor="start">›</text><text x="224.4" y="90" font-family="Arial,Helvetica,sans-serif" font-size="13" fill="#262626" font-weight="bold" text-anchor="start">Dashboard</text><rect x="176" y="114" width="145" height="70" rx="4" fill="#fff" stroke="#DADDE2" stroke-width="1"/><rect x="176" y="114" width="4" height="70" rx="0" fill="#0572CE" stroke="none" stroke-width="1"/><text x="190" y="134" font-family="Arial,Helvetica,sans-serif" font-size="10.5" fill="#6B7280" font-weight="normal" text-anchor="start">Sales This Month</text><text x="190" y="160" font-family="Arial,Helvetica,sans-serif" font-size="18" fill="#262626" font-weight="bold" text-anchor="start">PKR 48.6M</text><text x="190" y="176" font-family="Arial,Helvetica,sans-serif" font-size="9.5" fill="#1E7B3A" font-weight="normal" text-anchor="start">▲ 12.4% vs last month</text><rect x="331" y="114" width="145" height="70" rx="4" fill="#fff" stroke="#DADDE2" stroke-width="1"/><rect x="331" y="114" width="4" height="70" rx="0" fill="#0572CE" stroke="none" stroke-width="1"/><text x="345" y="134" font-family="Arial,Helvetica,sans-serif" font-size="10.5" fill="#6B7280" font-weight="normal" text-anchor="start">Receivables</text><text x="345" y="160" font-family="Arial,Helvetica,sans-serif" font-size="18" fill="#262626" font-weight="bold" text-anchor="start">PKR 17.2M</text><text x="345" y="176" font-family="Arial,Helvetica,sans-serif" font-size="9.5" fill="#C0392B" font-weight="normal" text-anchor="start">▼ 3.1% vs last month</text><rect x="486" y="114" width="145" height="70" rx="4" fill="#fff" stroke="#DADDE2" stroke-width="1"/><rect x="486" y="114" width="4" height="70" rx="0" fill="#0572CE" stroke="none" stroke-width="1"/><text x="500" y="134" font-family="Arial,Helvetica,sans-serif" font-size="10.5" fill="#6B7280" font-weight="normal" text-anchor="start">Open Orders</text><text x="500" y="160" font-family="Arial,Helvetica,sans-serif" font-size="18" fill="#262626" font-weight="bold" text-anchor="start">326</text><text x="500" y="176" font-family="Arial,Helvetica,sans-serif" font-size="9.5" fill="#1E7B3A" font-weight="normal" text-anchor="start">▲ 18 vs last month</text><rect x="641" y="114" width="145" height="70" rx="4" fill="#fff" stroke="#DADDE2" stroke-width="1"/><rect x="641" y="114" width="4" height="70" rx="0" fill="#0572CE" stroke="none" stroke-width="1"/><text x="655" y="134" font-family="Arial,Helvetica,sans-serif" font-size="10.5" fill="#6B7280" font-weight="normal" text-anchor="start">New Customers</text><text x="655" y="160" font-family="Arial,Helvetica,sans-serif" font-size="18" fill="#262626" font-weight="bold" text-anchor="start">41</text><text x="655" y="176" font-family="Arial,Helvetica,sans-serif" font-size="9.5" fill="#1E7B3A" font-weight="normal" text-anchor="start">▲ 9 vs last month</text><rect x="176" y="196" width="370" height="280" rx="4" fill="#fff" stroke="#DADDE2" stroke-width="1"/><text x="190" y="218" font-family="Arial,Helvetica,sans-serif" font-size="12" fill="#262626" font-weight="bold" text-anchor="start">Monthly Sales 2025 (PKR Million)</text><line x1="214" y1="450.0" x2="530" y2="450.0" stroke="#EEF0F2" stroke-width="1"/><text x="208" y="453.0" font-family="Arial,Helvetica,sans-serif" font-size="9" fill="#6B7280" font-weight="normal" text-anchor="end">0</text><line x1="214" y1="408.0" x2="530" y2="408.0" stroke="#EEF0F2" stroke-width="1"/><text x="208" y="411.0" font-family="Arial,Helvetica,sans-serif" font-size="9" fill="#6B7280" font-weight="normal" text-anchor="end">10</text><line x1="214" y1="366.0" x2="530" y2="366.0" stroke="#EEF0F2" stroke-width="1"/><text x="208" y="369.0" font-family="Arial,Helvetica,sans-serif" font-size="9" fill="#6B7280" font-weight="normal" text-anchor="end">20</text><line x1="214" y1="324.0" x2="530" y2="324.0" stroke="#EEF0F2" stroke-width="1"/><text x="208" y="327.0" font-family="Arial,Helvetica,sans-serif" font-size="9" fill="#6B7280" font-weight="normal" text-anchor="end">30</text><line x1="214" y1="282.0" x2="530" y2="282.0" stroke="#EEF0F2" stroke-width="1"/><text x="208" y="285.0" font-family="Arial,Helvetica,sans-serif" font-size="9" fill="#6B7280" font-weight="normal" text-anchor="end">40</text><line x1="214" y1="240.0" x2="530" y2="240.0" stroke="#EEF0F2" stroke-width="1"/><text x="208" y="243.0" font-family="Arial,Helvetica,sans-serif" font-size="9" fill="#6B7280" font-weight="normal" text-anchor="end">50</text><rect x="224" y="319.79999999999995" width="20" height="130.20000000000002" rx="2" fill="#0572CE" stroke="none" stroke-width="1"/><text x="234" y="464" font-family="Arial,Helvetica,sans-serif" font-size="9" fill="#6B7280" font-weight="normal" text-anchor="middle">Jan</text><rect x="255" y="307.2" width="20" height="142.8" rx="2" fill="#0572CE" stroke="none" stroke-width="1"/><text x="265" y="464" font-family="Arial,Helvetica,sans-serif" font-size="9" fill="#6B7280" font-weight="normal" text-anchor="middle">Feb</text><rect x="286" y="328.2" width="20" height="121.80000000000001" rx="2" fill="#0572CE" stroke="none" stroke-width="1"/><text x="296" y="464" font-family="Arial,Helvetica,sans-serif" font-size="9" fill="#6B7280" font-weight="normal" text-anchor="middle">Mar</text><rect x="317" y="290.4" width="20" height="159.6" rx="2" fill="#0572CE" stroke="none" stroke-width="1"/><text x="327" y="464" font-family="Arial,Helvetica,sans-serif" font-size="9" fill="#6B7280" font-weight="normal" text-anchor="middle">Apr</text><rect x="348" y="277.79999999999995" width="20" height="172.20000000000002" rx="2" fill="#0572CE" stroke="none" stroke-width="1"/><text x="358" y="464" font-family="Arial,Helvetica,sans-serif" font-size="9" fill="#6B7280" font-weight="normal" text-anchor="middle">May</text><rect x="379" y="298.79999999999995" width="20" height="151.20000000000002" rx="2" fill="#0572CE" stroke="none" stroke-width="1"/><text x="389" y="464" font-family="Arial,Helvetica,sans-serif" font-size="9" fill="#6B7280" font-weight="normal" text-anchor="middle">Jun</text><rect x="410" y="265.2" width="20" height="184.8" rx="2" fill="#0572CE" stroke="none" stroke-width="1"/><text x="420" y="464" font-family="Arial,Helvetica,sans-serif" font-size="9" fill="#6B7280" font-weight="normal" text-anchor="middle">Jul</text><rect x="441" y="286.2" width="20" height="163.8" rx="2" fill="#0572CE" stroke="none" stroke-width="1"/><text x="451" y="464" font-family="Arial,Helvetica,sans-serif" font-size="9" fill="#6B7280" font-weight="normal" text-anchor="middle">Aug</text><rect x="472" y="256.79999999999995" width="20" height="193.20000000000002" rx="2" fill="#0572CE" stroke="none" stroke-width="1"/><text x="482" y="464" font-family="Arial,Helvetica,sans-serif" font-size="9" fill="#6B7280" font-weight="normal" text-anchor="middle">Sep</text><rect x="503" y="245.88" width="20" height="204.12" rx="2" fill="#F2A33A" stroke="none" stroke-width="1"/><text x="513" y="464" font-family="Arial,Helvetica,sans-serif" font-size="9" fill="#6B7280" font-weight="normal" text-anchor="middle">Oct</text><rect x="556" y="196" width="230" height="280" rx="4" fill="#fff" stroke="#DADDE2" stroke-width="1"/><text x="570" y="218" font-family="Arial,Helvetica,sans-serif" font-size="12" fill="#262626" font-weight="bold" text-anchor="start">Sales by Region</text><path d="M671.0 243.0 A62 62 0 0 1 686.4 365.1 L680.5 341.8 A38 38 0 0 0 671.0 267.0 Z" fill="#0572CE"/><path d="M686.4 365.1 A62 62 0 0 1 614.9 331.4 L636.6 321.2 A38 38 0 0 0 680.5 341.8 Z" fill="#2BB673"/><path d="M614.9 331.4 A62 62 0 0 1 612.0 285.8 L634.9 293.3 A38 38 0 0 0 636.6 321.2 Z" fill="#F2A33A"/><path d="M612.0 285.8 A62 62 0 0 1 641.1 250.7 L652.7 271.7 A38 38 0 0 0 634.9 293.3 Z" fill="#8E5CD9"/><path d="M641.1 250.7 A62 62 0 0 1 671.0 243.0 L671.0 267.0 A38 38 0 0 0 652.7 271.7 Z" fill="#E5534B"/><text x="671" y="303" font-family="Arial,Helvetica,sans-serif" font-size="10" fill="#6B7280" font-weight="normal" text-anchor="middle">PKR</text><text x="671" y="319" font-family="Arial,Helvetica,sans-serif" font-size="13" fill="#262626" font-weight="bold" text-anchor="middle">48.6M</text><rect x="576" y="383" width="10" height="10" rx="2" fill="#0572CE" stroke="none" stroke-width="1"/><text x="592" y="392" font-family="Arial,Helvetica,sans-serif" font-size="10.5" fill="#262626" font-weight="normal" text-anchor="start">Punjab 46%</text><rect x="576" y="403" width="10" height="10" rx="2" fill="#2BB673" stroke="none" stroke-width="1"/><text x="592" y="412" font-family="Arial,Helvetica,sans-serif" font-size="10.5" fill="#262626" font-weight="normal" text-anchor="start">Sindh 22%</text><rect x="576" y="423" width="10" height="10" rx="2" fill="#F2A33A" stroke="none" stroke-width="1"/><text x="592" y="432" font-family="Arial,Helvetica,sans-serif" font-size="10.5" fill="#262626" font-weight="normal" text-anchor="start">KPK 12%</text><rect x="686" y="383" width="10" height="10" rx="2" fill="#8E5CD9" stroke="none" stroke-width="1"/><text x="702" y="392" font-family="Arial,Helvetica,sans-serif" font-size="10.5" fill="#262626" font-weight="normal" text-anchor="start">KSA 12%</text><rect x="686" y="403" width="10" height="10" rx="2" fill="#E5534B" stroke="none" stroke-width="1"/><text x="702" y="412" font-family="Arial,Helvetica,sans-serif" font-size="10.5" fill="#262626" font-weight="normal" text-anchor="start">UAE 8%</text></svg>